<svg width="200" height="200" viewBox="0 0 200 200" fill="none" xmlns="http://www.w3.org/2000/svg">
<path d="M100 15C83.1886 15 66.7547 19.9852 52.7765 29.3251C38.7984 38.665 27.9037 51.9402 21.4702 67.4719C15.0368 83.0036 13.3535 100.094 16.6333 116.583C19.913 133.071 28.0085 148.217 39.8959 160.104C51.7834 171.992 66.9289 180.087 83.4173 183.367C99.9057 186.646 116.996 184.963 132.528 178.53C148.06 172.096 161.335 161.202 170.675 147.223C180.015 133.245 185 116.811 185 100C185.009 88.8351 182.817 77.7779 178.549 67.461C174.28 57.1442 168.019 47.7702 160.125 39.8754C152.23 31.9806 142.856 25.7199 132.539 21.4515C122.222 17.1831 111.165 14.9908 100 15V15ZM100 165C87.1442 165 74.5771 161.188 63.8879 154.046C53.1987 146.903 44.8675 136.752 39.9478 124.874C35.0281 112.997 33.7409 99.9279 36.249 87.3191C38.757 74.7104 44.9477 63.1285 54.0381 54.0381C63.1285 44.9476 74.7104 38.757 87.3191 36.249C99.9279 33.7409 112.997 35.0281 124.874 39.9478C136.752 44.8675 146.903 53.1987 154.046 63.8879C161.188 74.5771 165 87.1442 165 100C165.017 108.541 163.348 117.001 160.087 124.895C156.827 132.789 152.039 139.961 146 146C139.961 152.039 132.789 156.827 124.895 160.087C117.001 163.348 108.541 165.017 100 165V165ZM130 92.5H110V72.5C110 69.8478 108.946 67.3043 107.071 65.4289C105.196 63.5536 102.652 62.5 100 62.5C97.3478 62.5 94.8043 63.5536 92.9289 65.4289C91.0536 67.3043 90 69.8478 90 72.5V92.5H70C67.3478 92.5 64.8043 93.5536 62.9289 95.4289C61.0536 97.3043 60 99.8478 60 102.5C60 105.152 61.0536 107.696 62.9289 109.571C64.8043 111.446 67.3478 112.5 70 112.5H90V132.5C90 135.152 91.0536 137.696 92.9289 139.571C94.8043 141.446 97.3478 142.5 100 142.5C102.652 142.5 105.196 141.446 107.071 139.571C108.946 137.696 110 135.152 110 132.5V112.5H130C132.652 112.5 135.196 111.446 137.071 109.571C138.946 107.696 140 105.152 140 102.5C140 99.8478 138.946 97.3043 137.071 95.4289C135.196 93.5536 132.652 92.5 130 92.5Z" fill="white"/>
</svg>
